PathFileType	4	(X/Y/Z)	C:/Users/opensim2020/Desktop/walking_exp_matlab/subject03_walking04_straight_04.trc																																																																																																																																																							
DataRate	CameraRate	NumFrames	NumMarkers	Units	OrigDataRate	OrigDataStartFrame	OrigNumFrames																																																																																																																																																			
100	100	4	51	mm	100	3209	293																																																																																																																																																			
Frame#	Time	LFHD			RFHD			LBHD			RBHD			C7			T10			CLAV			STRN			RBAK			LSHO			LUPA			LELB			LFRM			LWRA			LWRB			LFIN			RSHO			RUPA			RELB			RFRM			RWRA			RWRB			RFIN			LASI			RASI			LPSI			RPSI			LTHI			LKNE			LTIB			LANK			LHEE			LTOE			RTHI			RKNE			RTIB			RANK			RHEE			RTOE			*39			*40			*41			*42			*43			*44			*45			*46			*47			*48			*49			*50		
		X1	Y1	Z1	X2	Y2	Z2	X3	Y3	Z3	X4	Y4	Z4	X5	Y5	Z5	X6	Y6	Z6	X7	Y7	Z7	X8	Y8	Z8	X9	Y9	Z9	X10	Y10	Z10	X11	Y11	Z11	X12	Y12	Z12	X13	Y13	Z13	X14	Y14	Z14	X15	Y15	Z15	X16	Y16	Z16	X17	Y17	Z17	X18	Y18	Z18	X19	Y19	Z19	X20	Y20	Z20	X21	Y21	Z21	X22	Y22	Z22	X23	Y23	Z23	X24	Y24	Z24	X25	Y25	Z25	X26	Y26	Z26	X27	Y27	Z27	X28	Y28	Z28	X29	Y29	Z29	X30	Y30	Z30	X31	Y31	Z31	X32	Y32	Z32	X33	Y33	Z33	X34	Y34	Z34	X35	Y35	Z35	X36	Y36	Z36	X37	Y37	Z37	X38	Y38	Z38	X39	Y39	Z39	X40	Y40	Z40	X41	Y41	Z41	X42	Y42	Z42	X43	Y43	Z43	X44	Y44	Z44	X45	Y45	Z45	X46	Y46	Z46	X47	Y47	Z47	X48	Y48	Z48	X49	Y49	Z49	X50	Y50	Z50	X51	Y51	Z51
																																																																																																																																																										
184	1.83	165.44701	1626.81885	-1680.99158	157.29811	1629.03052	-1548.01648	39.97418	1575.28027	-1683.33704	36.31145	1577.98572	-1552.23511	10.29196	1423.00879	-1620.81238	-28.33286	1109.38025	-1618.47375	130.84888	1343.41479	-1622.45898	170.11494	1178.18311	-1629.42322	-43.82531	1250.96204	-1520.86902	83.67942	1381.39282	-1776.7085	84.87205	1184.03101	-1843.44092	104.87116	1062.04688	-1851.7561	143.33504	937.33081	-1849.58118	172.18556	821.84253	-1817.67615	149.81497	824.63989	-1869.07629	170.48131	742.5556	-1858.70374	92.99146	1369.6366	-1462.17529	106.86646	1147.271	-1390.70972	130.90114	1036.6488	-1380.80933	156.92253	902.30859	-1381.26074	186.83292	808.78809	-1421.78845	164.63408	803.2085	-1372.43896	189.65076	733.8075	-1383.6958	137.85201	947.37079	-1743.16663	148.62863	948.44824	-1504.84717	-22.6499	959.78052	-1687.10083	-14.08532	973.81177	-1538.03979	148.46713	645.78723	-1794.38562	200.42747	473.6409	-1773.06238	70.07389	326.0556	-1764.64551	-58.02542	164.3492	-1719.05249	-110.23215	157.37956	-1677.02917	40.81252	55.5402	-1701.34045	97.98628	651.83514	-1471.03845	106.85107	472.23285	-1511.33728	56.58137	287.17676	-1508.76428	21.00565	74.37027	-1561.35315	-24.43335	42.5615	-1611.23865	162.45496	37.45968	-1576.60901	NaN	NaN	NaN	NaN	NaN	NaN	NaN	NaN	NaN	NaN	NaN	NaN	NaN	NaN	NaN	NaN	NaN	NaN	NaN	NaN	NaN	NaN	NaN	NaN	NaN	NaN	NaN	NaN	NaN	NaN	NaN	NaN	NaN	NaN	NaN	NaN
185	1.84	174.72559	1626.12268	-1682.18896	167.04251	1628.98962	-1549.18628	49.03343	1575.09717	-1683.89832	45.74894	1578.46545	-1552.85046	19.28368	1422.9657	-1620.79382	-19.50753	1109.03467	-1618.11926	139.48572	1343.24023	-1622.68066	178.75085	1177.95947	-1629.28918	-34.56624	1251.11084	-1519.97412	91.68317	1381.11951	-1776.80725	90.59721	1183.66931	-1844.0415	109.06998	1061.53857	-1852.84888	146.25056	936.47559	-1851.32446	174.17261	820.4093	-1820.05322	151.47728	823.92175	-1871.30518	171.14044	741.52362	-1861.6626	102.29885	1370.04944	-1462.48706	119.04408	1148.23022	-1390.42126	144.88425	1037.96326	-1380.39624	172.80162	904.08325	-1380.64526	203.32727	810.58704	-1421.26587	182.09415	805.09912	-1371.6239	207.97633	735.98358	-1382.92712	147.05112	947.85663	-1742.85193	156.70615	947.83667	-1504.65308	-13.50493	959.69562	-1687.82141	-5.80482	973.62354	-1538.60254	161.74149	647.24237	-1794.22485	216.22273	475.90689	-1771.82007	90.80811	323.45386	-1764.36255	-31.4446	156.67055	-1719.68298	-83.55679	146.84898	-1677.95361	73.56301	53.94707	-1701.61951	104.132	651.32465	-1471.18103	111.53394	471.74237	-1511.38	59.39079	287.1355	-1508.94092	21.30542	74.63382	-1561.40479	-24.50907	43.14927	-1611.17896	162.52585	37.38805	-1576.61206	NaN	NaN	NaN	NaN	NaN	NaN	NaN	NaN	NaN	NaN	NaN	NaN	NaN	NaN	NaN	NaN	NaN	NaN	NaN	NaN	NaN	NaN	NaN	NaN	NaN	NaN	NaN	NaN	NaN	NaN	NaN	NaN	NaN	NaN	NaN	NaN
186	1.85	184.02567	1625.37769	-1683.33789	176.64679	1628.84399	-1550.33655	58.08439	1574.89551	-1684.55347	55.15478	1578.86218	-1553.4624	27.99119	1422.88452	-1620.74023	-10.87751	1108.94226	-1618.0321	148.20253	1342.91577	-1622.92859	187.44144	1177.74976	-1629.25635	-25.16369	1251.06665	-1519.17737	99.87906	1380.71753	-1776.99805	96.40665	1183.15454	-1844.74902	113.3111	1060.86548	-1854.06885	149.21405	935.45984	-1853.13452	176.27258	819.09076	-1822.52075	152.86272	822.80017	-1873.36292	172.02905	740.42578	-1864.44519	111.70397	1370.26575	-1462.76245	131.07739	1149.00525	-1390.06567	158.63654	1039.20703	-1379.82715	188.63602	905.74591	-1379.98462	220.68433	812.82263	-1420.48877	199.38681	806.90802	-1370.82788	226.27802	738.06573	-1382.12756	156.32651	948.1521	-1742.51233	164.50771	947.09766	-1504.59692	-4.70307	959.80005	-1688.76001	2.39072	973.4339	-1539.26855	173.38445	648.18329	-1793.56348	231.61723	478.13974	-1770.70862	111.3621	320.73871	-1764.03235	-4.03927	148.65189	-1720.6333	-56.22405	136.05234	-1678.72424	106.16479	51.82204	-1701.65393	110.22223	650.80981	-1471.44189	116.21638	471.15131	-1511.46985	62.14274	287.03741	-1509.2229	21.65372	75.01871	-1561.55359	-24.18012	43.55247	-1611.02808	162.48611	37.39315	-1576.36694	NaN	NaN	NaN	NaN	NaN	NaN	NaN	NaN	NaN	NaN	NaN	NaN	NaN	NaN	NaN	NaN	NaN	NaN	NaN	NaN	NaN	NaN	NaN	NaN	NaN	NaN	NaN	NaN	NaN	NaN	NaN	NaN	NaN	NaN	NaN	NaN
187	1.86	193.29097	1624.53174	-1684.45313	186.26889	1628.63977	-1551.47522	67.17438	1574.5459	-1685.16711	64.56119	1579.11584	-1554.04285	36.96925	1422.62891	-1620.75952	-2.22554	1108.65002	-1618.02002	156.94572	1342.64026	-1623.18701	196.05716	1177.4353	-1629.23901	-16.13099	1251.07043	-1518.57446	108.05168	1380.11182	-1777.23633	102.26894	1182.51831	-1845.52356	117.51022	1060.07385	-1855.39087	152.02518	934.31799	-1855.02844	178.33244	817.70099	-1824.92065	154.4137	821.7558	-1875.58289	173.1171	739.21619	-1867.00391	120.87152	1370.45386	-1463.12207	142.99017	1149.69043	-1389.74194	172.10013	1040.30554	-1379.26489	204.32835	907.32489	-1379.37488	238.01532	814.9502	-1419.7865	216.5871	808.66614	-1370.0636	244.14682	740.09735	-1381.65405	165.55148	948.29443	-1742.26404	172.65836	946.46893	-1504.41895	4.2019	959.70166	-1689.67847	10.59812	973.15924	-1539.97437	186.84491	649.6358	-1793.6991	245.95103	479.99963	-1769.49194	131.62157	317.88367	-1763.70862	23.84646	140.53651	-1720.55383	-27.75284	124.99287	-1679.01917	139.1382	49.80784	-1702.04285	116.10903	650.16077	-1471.68188	120.91029	470.58435	-1511.60791	64.86221	286.91605	-1509.54407	22.05392	75.30476	-1561.60571	-23.7917	43.9631	-1611.37158	162.58957	37.33257	-1576.36841	NaN	NaN	NaN	NaN	NaN	NaN	NaN	NaN	NaN	NaN	NaN	NaN	NaN	NaN	NaN	NaN	NaN	NaN	NaN	NaN	NaN	NaN	NaN	NaN	NaN	NaN	NaN	NaN	NaN	NaN	NaN	NaN	NaN	NaN	NaN	NaN
